<svg xmlns="http://www.w3.org/2000/svg" width="120" height="69" viewBox="0 0 120 69">
    <g fill="none" fill-rule="evenodd" stroke-linecap="round" stroke-linejoin="round">
        <path fill="#F4F5F7" stroke="#4D86A0" d="M0 31.364L18.26 0h83.48L120 31.364V57H0z"/>
        <path stroke="#E14504" d="M72.275 32.933c-.233 0-.464.061-.671.183l-2.384 1.396c-.415.244-.671.694-.671 1.18v2.793c0 .487.256.937.671 1.18l2.384 1.397a1.325 1.325 0 0 0 1.341 0l2.384-1.397c.415-.243.671-.693.671-1.18v-2.792c0-.487-.256-.937-.67-1.18l-2.385-1.397a1.325 1.325 0 0 0-.67-.183M52.902 14.8c-.418 0-.834.105-1.208.315l-4.29 2.412a2.344 2.344 0 0 0-1.208 2.039v4.824c0 .84.46 1.618 1.208 2.038l4.29 2.412a2.462 2.462 0 0 0 2.415 0l4.291-2.412a2.344 2.344 0 0 0 1.208-2.038v-4.824c0-.841-.461-1.619-1.208-2.039l-4.29-2.412a2.462 2.462 0 0 0-1.208-.315"/>
        <g stroke="#E14504">
            <path d="M67.431 11.778v5.289M64.824 14.422h5.215"/>
        </g>
        <g stroke="#4D86A0">
            <path d="M39.863 8v3.778M38 9.889h3.725"/>
        </g>
        <g stroke="#4D86A0">
            <path d="M60.353 35.2V42M57.373 38.6h5.96"/>
        </g>
        <g fill="#FFF" stroke="#4D86A0">
            <path d="M120 68.53H0V31.4h39.13v5.305c0 5.834 4.696 10.608 10.435 10.608h23.478c5.74 0 10.435-4.774 10.435-10.608V31.4H120v37.13z"/>
        </g>
    </g>
</svg>
